{"title":"The 5th Wave (2016) 480p WEBRip x264 AAC-k3n mp4","uid":14484319,"size":394790715,"categoryP":"video","categoryS":"movies","magnet":"?xt=urn:btih:93af8eb7f25b61f42eb10b57fff61fe2c60bed70&amp;dn=The+5th+Wave+%282016%29+480p+WEBRip+x264+AAC-k3n+mp4&amp;tr=udp%3A%2F%2Ftracker.leechers-paradise.org%3A6969&amp;tr=udp%3A%2F%2Fzer0day.ch%3A1337&amp;tr=udp%3A%2F%2Fopen.demonii.com%3A1337&amp;tr=udp%3A%2F%2Ftracker.coppersurfer.tk%3A6969&amp;tr=udp%3A%2F%2Fexodus.desync.com%3A6969","seeders":0,"leechers":1,"uploader":"k3nd00d","files":2,"time":1462050409,"description":"Source: The 5th Wave (2016) 720p WEB-DL 850MB - MkvCage\r\n\r\nGeneral\r\nComplete name : The.5th.Wave.2016.480p.WEBRip.x264.AAC-k3n.mp4\r\nFormat : MPEG-4\r\nFormat profile : Base Media\r\nCodec ID : isom (isom/iso2/avc1/mp41)\r\nFile size : 376 MiB\r\nDuration : 1h 52mn\r\nOverall bit rate mode : Variable\r\nOverall bit rate : 468 Kbps\r\nWriting application : Lavf56.36.100\r\n\r\nVideo\r\nID : 1\r\nFormat : AVC\r\nFormat/Info : Advanced Video Codec\r\nFormat profile :   \r\nFormat settings, CABAC : Yes\r\nFormat settings, ReFrames : 4 frames\r\nCodec ID : avc1\r\nCodec ID/Info : Advanced Video Coding\r\nDuration : 1h 52mn\r\nBit rate : 400 Kbps\r\nWidth : 854 pixels\r\nHeight : 356 pixels\r\nDisplay aspect ratio : 2.40:1\r\nFrame rate mode : Constant\r\nFrame rate : 23.976 (24000/1001) fps\r\nColor space : YUV\r\nChroma subsampling : 4:2:0\r\nBit depth : 8 bits\r\nScan type : Progressive\r\nBits/(Pixel*Frame) : 0.055\r\nStream size : 321 MiB (85%)\r\nWriting library : x264 core 146 r2538 121396c\r\nEncoding settings : cabac=1 / ref=3 / deblock=1:-1:-1 / analyse=0x3:0x113 / me=hex / subme=7 / psy=1 / psy_rd=1.00:0.15 / mixed_ref=1 / me_range=16 / chroma_me=1 / trellis=1 / 8x8dct=1 / cqm=0 / deadzone=21,11 / fast_pskip=1 / chroma_qp_offset=-3 / threads=6 / lookahead_threads=1 / sliced_threads=0 / nr=0 / decimate=1 / interlaced=0 / bluray_compat=0 / constrained_intra=0 / bframes=3 / b_pyramid=2 / b_adapt=1 / b_bias=0 / direct=1 / weightb=1 / open_gop=0 / weightp=2 / keyint=250 / keyint_min=23 / scenecut=40 / intra_refresh=0 / rc_lookahead=40 / rc=2pass / mbtree=1 / bitrate=400 / ratetol=1.0 / qcomp=0.60 / qpmin=0 / qpmax=69 / qpstep=4 / cplxblur=20.0 / qblur=0.5 / ip_ratio=1.40 / aq=1:1.00\r\n\r\nAudio\r\nID : 2\r\nFormat : AAC\r\nFormat/Info : Advanced Audio Codec\r\nFormat profile : HE-AAC / LC\r\nCodec ID : 40\r\nDuration : 1h 52mn\r\nBit rate mode : Variable\r\nBit rate : 64.0 Kbps\r\nMaximum bit rate : 128 Kbps\r\nChannel(s) : 2 channels\r\nChannel positions : Front: L R\r\nSampling rate : 48.0 KHz / 24.0 KHz\r\nFrame rate : 23.438 fps (1024 spf)\r\nCompression mode : Lossy\r\nStream size : 51.4 MiB (14%)\r\nLanguage : unk\r\nDefault : Yes\r\nAlternate group : 1","torrent":{"xt":"urn:btih:93af8eb7f25b61f42eb10b57fff61fe2c60bed70","amp;dn":"The+5th+Wave+%282016%29+480p+WEBRip+x264+AAC-k3n+mp4","amp;tr":["udp%3A%2F%2Ftracker.leechers-paradise.org%3A6969","udp%3A%2F%2Fzer0day.ch%3A1337","udp%3A%2F%2Fopen.demonii.com%3A1337","udp%3A%2F%2Ftracker.coppersurfer.tk%3A6969","udp%3A%2F%2Fexodus.desync.com%3A6969"],"infoHash":"93af8eb7f25b61f42eb10b57fff61fe2c60bed70","infoHashBuffer":{"type":"Buffer","data":[147,175,142,183,242,91,97,244,46,177,11,87,255,246,31,226,198,11,237,112]},"announce":[],"urlList":[]}}